<svg xmlns="http://www.w3.org/2000/svg" xmlns:xlink="http://www.w3.org/1999/xlink" version="1.1" width="768px" height="384px" viewBox="0 0 768 384">
<defs>
<clipPath id="clip-1" fill-rule="nonzero" ><path d="M 0,0 L 0,32 768,32 768,0 Z" /></clipPath>
<clipPath id="clip-2" fill-rule="nonzero" ><path d="M 0,355.6 L 0,384 768,384 768,355.6 Z" /></clipPath>
<clipPath id="clip-3" fill-rule="nonzero" ><path d="M 0,0 L 0,384 56,384 56,0 Z" /></clipPath>
<clipPath id="clip-4" fill-rule="nonzero" ><path d="M 56,32 L 56,355.6 768,355.6 768,32 Z" /></clipPath></defs>
<g stroke="none" fill="transparent" fill-rule="nonzero" fill-opacity="1" >
<rect x="0" y="0" width="768" height="384" transform="matrix(1 0 0 1 0 0)" /></g>
<g stroke="rgb(0,0,0)" stroke-width="1" stroke-linecap="butt" stroke-linejoin="miter" stroke-miterlimit="4" stroke-opacity="0.1" fill="none">
<path d="M 55.5,32 L 55.5,355" />
</g>
<g stroke="rgb(0,0,0)" stroke-width="1" stroke-linecap="butt" stroke-linejoin="miter" stroke-miterlimit="4" stroke-opacity="0.1" fill="none">
<path d="M 55.5,356 L 55.5,363.6" />
</g>
<g stroke="rgb(0,0,0)" stroke-width="1" stroke-linecap="butt" stroke-linejoin="miter" stroke-miterlimit="4" stroke-opacity="0.1" fill="none">
<path d="M 198.5,32 L 198.5,355" />
</g>
<g stroke="rgb(0,0,0)" stroke-width="1" stroke-linecap="butt" stroke-linejoin="miter" stroke-miterlimit="4" stroke-opacity="0.1" fill="none">
<path d="M 198.5,356 L 198.5,363.6" />
</g>
<g stroke="rgb(0,0,0)" stroke-width="1" stroke-linecap="butt" stroke-linejoin="miter" stroke-miterlimit="4" stroke-opacity="0.1" fill="none">
<path d="M 340.5,32 L 340.5,355" />
</g>
<g stroke="rgb(0,0,0)" stroke-width="1" stroke-linecap="butt" stroke-linejoin="miter" stroke-miterlimit="4" stroke-opacity="0.1" fill="none">
<path d="M 340.5,356 L 340.5,363.6" />
</g>
<g stroke="rgb(0,0,0)" stroke-width="1" stroke-linecap="butt" stroke-linejoin="miter" stroke-miterlimit="4" stroke-opacity="0.1" fill="none">
<path d="M 483.5,32 L 483.5,355" />
</g>
<g stroke="rgb(0,0,0)" stroke-width="1" stroke-linecap="butt" stroke-linejoin="miter" stroke-miterlimit="4" stroke-opacity="0.1" fill="none">
<path d="M 483.5,356 L 483.5,363.6" />
</g>
<g stroke="rgb(0,0,0)" stroke-width="1" stroke-linecap="butt" stroke-linejoin="miter" stroke-miterlimit="4" stroke-opacity="0.1" fill="none">
<path d="M 625.5,32 L 625.5,355" />
</g>
<g stroke="rgb(0,0,0)" stroke-width="1" stroke-linecap="butt" stroke-linejoin="miter" stroke-miterlimit="4" stroke-opacity="0.1" fill="none">
<path d="M 625.5,356 L 625.5,363.6" />
</g>
<g stroke="rgb(0,0,0)" stroke-width="1" stroke-linecap="butt" stroke-linejoin="miter" stroke-miterlimit="4" stroke-opacity="0.1" fill="none">
<path d="M 768.5,32 L 768.5,355" />
</g>
<g stroke="rgb(0,0,0)" stroke-width="1" stroke-linecap="butt" stroke-linejoin="miter" stroke-miterlimit="4" stroke-opacity="0.1" fill="none">
<path d="M 768.5,356 L 768.5,363.6" />
</g>
<g stroke="rgb(0,0,0)" stroke-width="1" stroke-linecap="butt" stroke-linejoin="miter" stroke-miterlimit="4" stroke-opacity="0.1" fill="none">
<path d="M 57,355.5 L 768,355.5" />
</g>
<g stroke="rgb(0,0,0)" stroke-width="1" stroke-linecap="butt" stroke-linejoin="miter" stroke-miterlimit="4" stroke-opacity="0.1" fill="none">
<path d="M 48,355.5 L 56,355.5" />
</g>
<g stroke="rgb(0,0,0)" stroke-width="1" stroke-linecap="butt" stroke-linejoin="miter" stroke-miterlimit="4" stroke-opacity="0.1" fill="none">
<path d="M 57,319.5 L 768,319.5" />
</g>
<g stroke="rgb(0,0,0)" stroke-width="1" stroke-linecap="butt" stroke-linejoin="miter" stroke-miterlimit="4" stroke-opacity="0.1" fill="none">
<path d="M 48,319.5 L 56,319.5" />
</g>
<g stroke="rgb(0,0,0)" stroke-width="1" stroke-linecap="butt" stroke-linejoin="miter" stroke-miterlimit="4" stroke-opacity="0.1" fill="none">
<path d="M 57,283.5 L 768,283.5" />
</g>
<g stroke="rgb(0,0,0)" stroke-width="1" stroke-linecap="butt" stroke-linejoin="miter" stroke-miterlimit="4" stroke-opacity="0.1" fill="none">
<path d="M 48,283.5 L 56,283.5" />
</g>
<g stroke="rgb(0,0,0)" stroke-width="1" stroke-linecap="butt" stroke-linejoin="miter" stroke-miterlimit="4" stroke-opacity="0.1" fill="none">
<path d="M 57,247.5 L 768,247.5" />
</g>
<g stroke="rgb(0,0,0)" stroke-width="1" stroke-linecap="butt" stroke-linejoin="miter" stroke-miterlimit="4" stroke-opacity="0.1" fill="none">
<path d="M 48,247.5 L 56,247.5" />
</g>
<g stroke="rgb(0,0,0)" stroke-width="1" stroke-linecap="butt" stroke-linejoin="miter" stroke-miterlimit="4" stroke-opacity="0.1" fill="none">
<path d="M 57,211.5 L 768,211.5" />
</g>
<g stroke="rgb(0,0,0)" stroke-width="1" stroke-linecap="butt" stroke-linejoin="miter" stroke-miterlimit="4" stroke-opacity="0.1" fill="none">
<path d="M 48,211.5 L 56,211.5" />
</g>
<g stroke="rgb(0,0,0)" stroke-width="1" stroke-linecap="butt" stroke-linejoin="miter" stroke-miterlimit="4" stroke-opacity="0.1" fill="none">
<path d="M 57,175.5 L 768,175.5" />
</g>
<g stroke="rgb(0,0,0)" stroke-width="1" stroke-linecap="butt" stroke-linejoin="miter" stroke-miterlimit="4" stroke-opacity="0.1" fill="none">
<path d="M 48,175.5 L 56,175.5" />
</g>
<g stroke="rgb(0,0,0)" stroke-width="1" stroke-linecap="butt" stroke-linejoin="miter" stroke-miterlimit="4" stroke-opacity="0.1" fill="none">
<path d="M 57,139.5 L 768,139.5" />
</g>
<g stroke="rgb(0,0,0)" stroke-width="1" stroke-linecap="butt" stroke-linejoin="miter" stroke-miterlimit="4" stroke-opacity="0.1" fill="none">
<path d="M 48,139.5 L 56,139.5" />
</g>
<g stroke="rgb(0,0,0)" stroke-width="1" stroke-linecap="butt" stroke-linejoin="miter" stroke-miterlimit="4" stroke-opacity="0.1" fill="none">
<path d="M 57,103.5 L 768,103.5" />
</g>
<g stroke="rgb(0,0,0)" stroke-width="1" stroke-linecap="butt" stroke-linejoin="miter" stroke-miterlimit="4" stroke-opacity="0.1" fill="none">
<path d="M 48,103.5 L 56,103.5" />
</g>
<g stroke="rgb(0,0,0)" stroke-width="1" stroke-linecap="butt" stroke-linejoin="miter" stroke-miterlimit="4" stroke-opacity="0.1" fill="none">
<path d="M 57,67.5 L 768,67.5" />
</g>
<g stroke="rgb(0,0,0)" stroke-width="1" stroke-linecap="butt" stroke-linejoin="miter" stroke-miterlimit="4" stroke-opacity="0.1" fill="none">
<path d="M 48,67.5 L 56,67.5" />
</g>
<g stroke="rgb(0,0,0)" stroke-width="1" stroke-linecap="butt" stroke-linejoin="miter" stroke-miterlimit="4" stroke-opacity="0.1" fill="none">
<path d="M 57,32.5 L 768,32.5" />
</g>
<g stroke="rgb(0,0,0)" stroke-width="1" stroke-linecap="butt" stroke-linejoin="miter" stroke-miterlimit="4" stroke-opacity="0.1" fill="none">
<path d="M 48,32.5 L 56,32.5" />
</g>
<g stroke="none" fill="rgb(54,162,235)" fill-rule="nonzero" fill-opacity="1"  clip-path="url(#clip-1)" >
<path d="M 250,10 L 250,22 290,22 290,10 Z" />
</g>
<g stroke="none" fill="#666" fill-rule="nonzero" fill-opacity="1"  clip-path="url(#clip-1)" >
<text style="font:normal 12px &apos;Helvetica Neue&apos;, &apos;Helvetica&apos;, &apos;Arial&apos;, sans-serif;" text-anchor="start" dominant-baseline="middle" transform="matrix(1 0 0 1 0 0)" 
><tspan x="296" y="16">Connections: 200, Payload size: 16384</tspan></text></g>
<g stroke="rgb(0,0,0)" stroke-width="1" stroke-linecap="butt" stroke-linejoin="miter" stroke-miterlimit="4" stroke-opacity="0.1" fill="none">
<path d="M 56,355.5 L 769,355.5" />
</g>
<g stroke="none" fill="#666" fill-rule="nonzero" fill-opacity="1"  clip-path="url(#clip-2)" >
<text style="font:normal 12px &apos;Helvetica Neue&apos;, &apos;Helvetica&apos;, &apos;Arial&apos;, sans-serif;" text-anchor="middle" dominant-baseline="middle" transform="matrix(1 0 0 1 127.2 366.6)" 
><tspan x="0" y="7.199999999999999">fastwebsockets</tspan></text></g>
<g stroke="none" fill="#666" fill-rule="nonzero" fill-opacity="1"  clip-path="url(#clip-2)" >
<text style="font:normal 12px &apos;Helvetica Neue&apos;, &apos;Helvetica&apos;, &apos;Arial&apos;, sans-serif;" text-anchor="middle" dominant-baseline="middle" transform="matrix(1 0 0 1 269.6 366.6)" 
><tspan x="0" y="7.199999999999999">tokio-websockets</tspan></text></g>
<g stroke="none" fill="#666" fill-rule="nonzero" fill-opacity="1"  clip-path="url(#clip-2)" >
<text style="font:normal 12px &apos;Helvetica Neue&apos;, &apos;Helvetica&apos;, &apos;Arial&apos;, sans-serif;" text-anchor="middle" dominant-baseline="middle" transform="matrix(1 0 0 1 412 366.6)" 
><tspan x="0" y="7.199999999999999">uWebSockets</tspan></text></g>
<g stroke="none" fill="#666" fill-rule="nonzero" fill-opacity="1"  clip-path="url(#clip-2)" >
<text style="font:normal 12px &apos;Helvetica Neue&apos;, &apos;Helvetica&apos;, &apos;Arial&apos;, sans-serif;" text-anchor="middle" dominant-baseline="middle" transform="matrix(1 0 0 1 554.4 366.6)" 
><tspan x="0" y="7.199999999999999">tokio-tungstenite</tspan></text></g>
<g stroke="none" fill="#666" fill-rule="nonzero" fill-opacity="1"  clip-path="url(#clip-2)" >
<text style="font:normal 12px &apos;Helvetica Neue&apos;, &apos;Helvetica&apos;, &apos;Arial&apos;, sans-serif;" text-anchor="middle" dominant-baseline="middle" transform="matrix(1 0 0 1 696.8000000000001 366.6)" 
><tspan x="0" y="7.199999999999999">rust-websocket</tspan></text></g>
<g stroke="rgb(0,0,0)" stroke-width="1" stroke-linecap="butt" stroke-linejoin="miter" stroke-miterlimit="4" stroke-opacity="0.1" fill="none">
<path d="M 56.5,32 L 56.5,356" />
</g>
<g stroke="none" fill="#666" fill-rule="nonzero" fill-opacity="1"  clip-path="url(#clip-3)" >
<text style="font:normal 12px &apos;Helvetica Neue&apos;, &apos;Helvetica&apos;, &apos;Arial&apos;, sans-serif;" text-anchor="end" dominant-baseline="middle" transform="matrix(1 0 0 1 45 355.6)" 
><tspan x="0" y="0">0</tspan></text></g>
<g stroke="none" fill="#666" fill-rule="nonzero" fill-opacity="1"  clip-path="url(#clip-3)" >
<text style="font:normal 12px &apos;Helvetica Neue&apos;, &apos;Helvetica&apos;, &apos;Arial&apos;, sans-serif;" text-anchor="end" dominant-baseline="middle" transform="matrix(1 0 0 1 45 319.64444444444445)" 
><tspan x="0" y="0">20,000</tspan></text></g>
<g stroke="none" fill="#666" fill-rule="nonzero" fill-opacity="1"  clip-path="url(#clip-3)" >
<text style="font:normal 12px &apos;Helvetica Neue&apos;, &apos;Helvetica&apos;, &apos;Arial&apos;, sans-serif;" text-anchor="end" dominant-baseline="middle" transform="matrix(1 0 0 1 45 283.68888888888887)" 
><tspan x="0" y="0">40,000</tspan></text></g>
<g stroke="none" fill="#666" fill-rule="nonzero" fill-opacity="1"  clip-path="url(#clip-3)" >
<text style="font:normal 12px &apos;Helvetica Neue&apos;, &apos;Helvetica&apos;, &apos;Arial&apos;, sans-serif;" text-anchor="end" dominant-baseline="middle" transform="matrix(1 0 0 1 45 247.73333333333338)" 
><tspan x="0" y="0">60,000</tspan></text></g>
<g stroke="none" fill="#666" fill-rule="nonzero" fill-opacity="1"  clip-path="url(#clip-3)" >
<text style="font:normal 12px &apos;Helvetica Neue&apos;, &apos;Helvetica&apos;, &apos;Arial&apos;, sans-serif;" text-anchor="end" dominant-baseline="middle" transform="matrix(1 0 0 1 45 211.7777777777778)" 
><tspan x="0" y="0">80,000</tspan></text></g>
<g stroke="none" fill="#666" fill-rule="nonzero" fill-opacity="1"  clip-path="url(#clip-3)" >
<text style="font:normal 12px &apos;Helvetica Neue&apos;, &apos;Helvetica&apos;, &apos;Arial&apos;, sans-serif;" text-anchor="end" dominant-baseline="middle" transform="matrix(1 0 0 1 45 175.82222222222222)" 
><tspan x="0" y="0">100,000</tspan></text></g>
<g stroke="none" fill="#666" fill-rule="nonzero" fill-opacity="1"  clip-path="url(#clip-3)" >
<text style="font:normal 12px &apos;Helvetica Neue&apos;, &apos;Helvetica&apos;, &apos;Arial&apos;, sans-serif;" text-anchor="end" dominant-baseline="middle" transform="matrix(1 0 0 1 45 139.86666666666667)" 
><tspan x="0" y="0">120,000</tspan></text></g>
<g stroke="none" fill="#666" fill-rule="nonzero" fill-opacity="1"  clip-path="url(#clip-3)" >
<text style="font:normal 12px &apos;Helvetica Neue&apos;, &apos;Helvetica&apos;, &apos;Arial&apos;, sans-serif;" text-anchor="end" dominant-baseline="middle" transform="matrix(1 0 0 1 45 103.91111111111111)" 
><tspan x="0" y="0">140,000</tspan></text></g>
<g stroke="none" fill="#666" fill-rule="nonzero" fill-opacity="1"  clip-path="url(#clip-3)" >
<text style="font:normal 12px &apos;Helvetica Neue&apos;, &apos;Helvetica&apos;, &apos;Arial&apos;, sans-serif;" text-anchor="end" dominant-baseline="middle" transform="matrix(1 0 0 1 45 67.95555555555558)" 
><tspan x="0" y="0">160,000</tspan></text></g>
<g stroke="none" fill="#666" fill-rule="nonzero" fill-opacity="1"  clip-path="url(#clip-3)" >
<text style="font:normal 12px &apos;Helvetica Neue&apos;, &apos;Helvetica&apos;, &apos;Arial&apos;, sans-serif;" text-anchor="end" dominant-baseline="middle" transform="matrix(1 0 0 1 45 32)" 
><tspan x="0" y="0">180,000</tspan></text></g>
<g stroke="none" fill="rgb(54,162,235)" fill-rule="nonzero" fill-opacity="1"  clip-path="url(#clip-4)" >
<path d="M 75.936,64.804051 L 75.936,355.1 178.464,355.1 178.464,64.804051 Z" />
</g>
<g stroke="none" fill="rgb(54,162,235)" fill-rule="nonzero" fill-opacity="1"  clip-path="url(#clip-4)" >
<path d="M 218.336,119.852007 L 218.336,355.1 320.864,355.1 320.864,119.852007 Z" />
</g>
<g stroke="none" fill="rgb(54,162,235)" fill-rule="nonzero" fill-opacity="1"  clip-path="url(#clip-4)" >
<path d="M 360.736,126.881318 L 360.736,355.1 463.264,355.1 463.264,126.881318 Z" />
</g>
<g stroke="none" fill="rgb(54,162,235)" fill-rule="nonzero" fill-opacity="1"  clip-path="url(#clip-4)" >
<path d="M 503.136,206.77636 L 503.136,355.1 605.664,355.1 605.664,206.77636 Z" />
</g>
<g stroke="none" fill="rgb(54,162,235)" fill-rule="nonzero" fill-opacity="1"  clip-path="url(#clip-4)" >
<path d="M 645.536,286.067948 L 645.536,355.1 748.064,355.1 748.064,286.067948 Z" />
</g>
</svg>